<?xml version="1.0" encoding="utf-8"?>
<!-- Svg Vector Icons : http://www.onlinewebfonts.com/icon -->
<!DOCTYPE svg PUBLIC "-//W3C//DTD SVG 1.1//EN" "http://www.w3.org/Graphics/SVG/1.1/DTD/svg11.dtd">
<svg version="1.1" xmlns="http://www.w3.org/2000/svg" xmlns:xlink="http://www.w3.org/1999/xlink" x="0px" y="0px" viewBox="0 0 256 256" enable-background="new 0 0 256 256" xml:space="preserve">
<metadata> Svg Vector Icons : http://www.onlinewebfonts.com/icon </metadata>
<g><g><path fill="#000000" d="M246,218.4c0,1.9-0.9,4.4-2.6,7.6s-4.4,6.2-7.9,9.1c-3.5,2.9-7.9,5.5-13.1,7.7c-5.2,2.2-11.2,3.3-17.9,3.3H51.8c-6.9,0-13-1.1-18.2-3.3c-5.2-2.2-9.6-4.8-13.1-7.7s-6.2-5.9-7.9-9.1s-2.6-5.7-2.6-7.6l20.8-111.2c0-3.9,1.4-7.2,4.1-9.9c2.7-2.7,6-4,9.8-4c1.1,0.3,2.4,0.7,3.8,1.2c1.3,0.3,2.7,0.7,4.5,1.2l5.7,1.7V78.9c0-9.4,1.8-18.4,5.4-26.8c3.6-8.4,8.6-15.7,14.9-21.9C85.2,24,92.6,19.1,101,15.4c8.4-3.6,17.4-5.4,27-5.4c9.6,0,18.6,1.8,27,5.4c8.4,3.6,15.8,8.5,22.1,14.8c6.3,6.2,11.2,13.5,14.9,21.9c3.6,8.4,5.4,17.3,5.4,26.8v18.4l5.7-1.7c1.7-0.5,3.2-0.9,4.5-1.2c1.4-0.5,2.7-0.9,3.8-1.2c3.9,0,7.2,1.3,9.9,4c2.7,2.7,4,6,4,9.9L246,218.4z M65.5,141.9c3.9,0,7.2-1.3,9.9-4c2.7-2.7,4-6,4-9.9c0-2.7-0.6-5-1.9-7.1s-2.9-3.7-5-5v12H58.6v-12c-4.6,2.5-6.8,6.5-6.8,12c0,3.9,1.3,7.2,4,9.9C58.5,140.6,61.7,141.9,65.5,141.9z M72.5,100.6c7.7,1.7,16.4,3.3,26,4.6c9.6,1.3,19.4,2,29.5,2c10.1,0,19.9-0.7,29.5-2c9.6-1.3,18.3-2.9,26.2-4.6V81c0-7.9-1.4-15.3-4.4-22.2c-2.9-6.9-6.9-13-11.9-18.2c-5-5.2-10.9-9.3-17.7-12.3c-6.8-3-14-4.5-21.7-4.5c-7.7,0-14.9,1.5-21.6,4.5c-6.7,3-12.5,7.1-17.6,12.3c-5,5.2-9,11.2-11.9,18.2C74,65.8,72.5,73.2,72.5,81V100.6L72.5,100.6z M190.5,141.9c3.9,0,7.2-1.3,9.9-4c2.7-2.7,4-6,4-9.9c0-2.7-0.6-5-1.9-7.1c-1.3-2-3-3.7-5.2-5v12h-13.7v-12c-2.2,1.3-3.9,2.9-5.2,5c-1.3,2-1.9,4.4-1.9,7.1c0,3.9,1.4,7.2,4.1,9.9C183.5,140.6,186.8,141.9,190.5,141.9L190.5,141.9z"/></g></g>
</svg>