<svg width="25" height="24" viewBox="0 0 25 24" fill="none" xmlns="http://www.w3.org/2000/svg">
<path d="M7.5 21H17.5" stroke="#959BBE" stroke-width="2" stroke-linecap="round" stroke-linejoin="round"/>
<path d="M12.5 21C14.8869 21 17.1761 20.0518 18.864 18.364C20.5518 16.6761 21.5 14.3869 21.5 12H3.5C3.5 14.3869 4.44821 16.6761 6.13604 18.364C7.82387 20.0518 10.1131 21 12.5 21Z" stroke="#959BBE" stroke-width="2" stroke-linecap="round" stroke-linejoin="round"/>
<path d="M11.88 12C11.2744 12.0056 10.689 11.7821 10.2413 11.3742C9.79358 10.9663 9.51665 10.4042 9.46604 9.80066C9.41543 9.19711 9.59488 8.59675 9.9684 8.11998C10.3419 7.64321 10.8819 7.3253 11.48 7.23C11.3843 6.80623 11.4053 6.36441 11.541 5.95167C11.6766 5.53893 11.9218 5.17075 12.2502 4.88641C12.5787 4.60206 12.9782 4.41222 13.4061 4.33712C13.8341 4.26203 14.2743 4.3045 14.68 4.46C14.8576 4.18036 15.0913 3.94053 15.3661 3.7556C15.641 3.57067 15.9512 3.44465 16.2771 3.38547C16.6031 3.32629 16.9378 3.33523 17.2601 3.41174C17.5824 3.48824 17.8854 3.63065 18.15 3.83C18.6116 3.46722 19.1901 3.28621 19.7761 3.32119C20.3621 3.35618 20.915 3.60475 21.3301 4.01987C21.7453 4.43499 21.9938 4.98787 22.0288 5.57389C22.0638 6.15991 21.8828 6.73844 21.52 7.2C21.7458 7.49993 21.8981 7.84865 21.9646 8.21813C22.0312 8.58761 22.0101 8.96755 21.9031 9.32741C21.7961 9.68727 21.6062 10.017 21.3486 10.2901C21.0911 10.5633 20.773 10.7721 20.42 10.9C20.5113 11.2599 20.5215 11.6356 20.45 12" stroke="#959BBE" stroke-width="2" stroke-linecap="round" stroke-linejoin="round"/>
<path d="M13.5 12L17.5 8" stroke="#959BBE" stroke-width="2" stroke-linecap="round" stroke-linejoin="round"/>
<path d="M11.4 7.25C10.8515 6.66527 10.1395 6.25934 9.35697 6.08512C8.57439 5.9109 7.75748 5.97648 7.01272 6.27331C6.26796 6.57013 5.62989 7.08443 5.18169 7.74918C4.73348 8.41392 4.49593 9.19828 4.49999 10C4.49999 10.73 4.69999 11.41 5.03999 12" stroke="#959BBE" stroke-width="2" stroke-linecap="round" stroke-linejoin="round"/>
</svg>
