<svg width="25" height="24" viewBox="0 0 25 24" fill="none" xmlns="http://www.w3.org/2000/svg">
<path d="M18.5 22H4.5C3.96957 22 3.46086 21.7893 3.08579 21.4142C2.71071 21.0391 2.5 20.5304 2.5 20V6" stroke="#959BBE" stroke-width="2" stroke-linecap="round" stroke-linejoin="round"/>
<path d="M22.5 13L21.204 11.704C20.752 11.2521 20.1391 10.9983 19.5 10.9983C18.8609 10.9983 18.248 11.2521 17.796 11.704L11.5 18" stroke="#959BBE" stroke-width="2" stroke-linecap="round" stroke-linejoin="round"/>
<path d="M12.5 10C13.6046 10 14.5 9.10457 14.5 8C14.5 6.89543 13.6046 6 12.5 6C11.3954 6 10.5 6.89543 10.5 8C10.5 9.10457 11.3954 10 12.5 10Z" stroke="#959BBE" stroke-width="2" stroke-linecap="round" stroke-linejoin="round"/>
<path d="M20.5 2H8.5C7.39543 2 6.5 2.89543 6.5 4V16C6.5 17.1046 7.39543 18 8.5 18H20.5C21.6046 18 22.5 17.1046 22.5 16V4C22.5 2.89543 21.6046 2 20.5 2Z" stroke="#959BBE" stroke-width="2" stroke-linecap="round" stroke-linejoin="round"/>
</svg>
